<svg width="49" height="33" viewBox="0 0 49 33" fill="none" xmlns="http://www.w3.org/2000/svg">
<g filter="url(#filter0_d_93_468)">
<mask id="path-1-inside-1_93_468" fill="white">
<path d="M39.875 23.2143H29.625V17.8571H26.7208C24.8417 22.1429 20.5708 25 15.9583 25C9.29583 25 4 19.4643 4 12.5C4 5.53571 9.29583 0 15.9583 0C20.5708 0 24.8417 2.85714 26.7208 7.14286L45 7.14286V17.8571H39.875V23.2143ZM33.0417 19.6429H36.4583V14.2857H41.5833V10.7143L24.3292 10.7143L23.9875 9.46429C22.7917 5.89286 19.5458 3.57143 15.9583 3.57143C11.175 3.57143 7.41667 7.5 7.41667 12.5C7.41667 17.5 11.175 21.4286 15.9583 21.4286C19.5458 21.4286 22.7917 19.1071 23.9875 15.5357L24.3292 14.2857L33.0417 14.2857V19.6429ZM15.9583 17.8571C13.0542 17.8571 10.8333 15.5357 10.8333 12.5C10.8333 9.46429 13.0542 7.14286 15.9583 7.14286C18.8625 7.14286 21.0833 9.46429 21.0833 12.5C21.0833 15.5357 18.8625 17.8571 15.9583 17.8571ZM15.9583 10.7143C14.9333 10.7143 14.25 11.4286 14.25 12.5C14.25 13.5714 14.9333 14.2857 15.9583 14.2857C16.9833 14.2857 17.6667 13.5714 17.6667 12.5C17.6667 11.4286 16.9833 10.7143 15.9583 10.7143Z"/>
</mask>
<path d="M39.875 23.2143V27.2143H43.875V23.2143H39.875ZM29.625 23.2143H25.625V27.2143H29.625V23.2143ZM29.625 17.8571H33.625V13.8571L29.625 13.8571V17.8571ZM26.7208 17.8571V13.8571H24.1071L23.0575 16.2509L26.7208 17.8571ZM26.7208 7.14286L23.0575 8.74912L24.1071 11.1429H26.7208V7.14286ZM45 7.14286L49 7.14286V3.14286L45 3.14286V7.14286ZM45 17.8571V21.8571H49V17.8571H45ZM39.875 17.8571V13.8571H35.875V17.8571H39.875ZM33.0417 19.6429H29.0417V23.6429H33.0417V19.6429ZM36.4583 19.6429V23.6429H40.4583V19.6429H36.4583ZM36.4583 14.2857V10.2857H32.4583V14.2857H36.4583ZM41.5833 14.2857V18.2857H45.5833V14.2857H41.5833ZM41.5833 10.7143H45.5833V6.71429L41.5833 6.71429V10.7143ZM24.3292 10.7143L20.4707 11.7689L21.2758 14.7143H24.3292V10.7143ZM23.9875 9.46429L27.846 8.40964L27.8163 8.30103L27.7805 8.19426L23.9875 9.46429ZM23.9875 15.5357L27.7805 16.8057L27.8163 16.699L27.846 16.5904L23.9875 15.5357ZM24.3292 14.2857V10.2857H21.2758L20.4707 13.2311L24.3292 14.2857ZM33.0417 14.2857H37.0417V10.2857H33.0417V14.2857ZM39.875 19.2143H29.625V27.2143H39.875V19.2143ZM33.625 23.2143V17.8571H25.625V23.2143H33.625ZM29.625 13.8571H26.7208V21.8571H29.625V13.8571ZM23.0575 16.2509C21.7949 19.1304 18.931 21 15.9583 21L15.9583 29C22.2107 29 27.8884 25.1554 30.3842 19.4634L23.0575 16.2509ZM15.9583 21C11.6701 21 8 17.424 8 12.5H0C0 21.5046 6.92155 29 15.9583 29L15.9583 21ZM8 12.5C8 7.57601 11.6701 4 15.9583 4V-4C6.92155 -4 0 3.49542 0 12.5H8ZM15.9583 4C18.931 4 21.7949 5.86965 23.0575 8.74912L30.3842 5.53659C27.8884 -0.155361 22.2107 -4 15.9583 -4V4ZM26.7208 11.1429L45 11.1429V3.14286L26.7208 3.14286V11.1429ZM41 7.14286V17.8571H49V7.14286L41 7.14286ZM45 13.8571H39.875V21.8571H45V13.8571ZM35.875 17.8571V23.2143H43.875V17.8571H35.875ZM33.0417 23.6429H36.4583V15.6429H33.0417V23.6429ZM40.4583 19.6429V14.2857H32.4583V19.6429H40.4583ZM36.4583 18.2857H41.5833V10.2857H36.4583V18.2857ZM45.5833 14.2857V10.7143H37.5833V14.2857H45.5833ZM41.5833 6.71429L24.3292 6.71429V14.7143L41.5833 14.7143V6.71429ZM28.1876 9.65964L27.846 8.40964L20.129 10.5189L20.4707 11.7689L28.1876 9.65964ZM27.7805 8.19426C26.0508 3.02822 21.3034 -0.428571 15.9583 -0.428571V7.57143C17.7883 7.57143 19.5326 8.7575 20.1945 10.7343L27.7805 8.19426ZM15.9583 -0.428571C8.80071 -0.428571 3.41667 5.45971 3.41667 12.5H11.4167C11.4167 9.54029 13.5493 7.57143 15.9583 7.57143V-0.428571ZM3.41667 12.5C3.41667 19.5403 8.80071 25.4286 15.9583 25.4286V17.4286C13.5493 17.4286 11.4167 15.4597 11.4167 12.5H3.41667ZM15.9583 25.4286C21.3034 25.4286 26.0508 21.9718 27.7805 16.8057L20.1945 14.2657C19.5326 16.2425 17.7883 17.4286 15.9583 17.4286V25.4286ZM27.846 16.5904L28.1876 15.3404L20.4707 13.2311L20.129 14.4811L27.846 16.5904ZM24.3292 18.2857H33.0417V10.2857L24.3292 10.2857V18.2857ZM29.0417 14.2857V19.6429H37.0417V14.2857L29.0417 14.2857ZM15.9583 13.8571C15.6107 13.8571 15.3697 13.7323 15.1971 13.5519C15.0178 13.3644 14.8333 13.027 14.8333 12.5L6.83333 12.5C6.83333 17.576 10.6799 21.8571 15.9583 21.8571V13.8571ZM14.8333 12.5C14.8333 11.973 15.0178 11.6356 15.1971 11.4481C15.3697 11.2677 15.6107 11.1429 15.9583 11.1429V3.14286C10.6799 3.14286 6.83333 7.42399 6.83333 12.5L14.8333 12.5ZM15.9583 11.1429C16.3059 11.1429 16.5469 11.2677 16.7195 11.4481C16.8988 11.6356 17.0833 11.973 17.0833 12.5H25.0833C25.0833 7.42399 21.2368 3.14286 15.9583 3.14286V11.1429ZM17.0833 12.5C17.0833 13.027 16.8988 13.3644 16.7195 13.5519C16.5469 13.7323 16.3059 13.8571 15.9583 13.8571V21.8571C21.2368 21.8571 25.0833 17.576 25.0833 12.5H17.0833ZM15.9583 6.71429C14.4821 6.71429 12.967 7.25111 11.8294 8.44025C10.7071 9.61343 10.25 11.1071 10.25 12.5L18.25 12.5C18.25 12.8215 18.1346 13.4223 17.6102 13.9705C17.0705 14.5346 16.4095 14.7143 15.9583 14.7143V6.71429ZM10.25 12.5C10.25 13.8929 10.7071 15.3866 11.8294 16.5598C12.967 17.7489 14.4821 18.2857 15.9583 18.2857V10.2857C16.4095 10.2857 17.0705 10.4654 17.6102 11.0295C18.1346 11.5777 18.25 12.1785 18.25 12.5L10.25 12.5ZM15.9583 18.2857C17.4345 18.2857 18.9496 17.7489 20.0872 16.5598C21.2096 15.3866 21.6667 13.8929 21.6667 12.5H13.6667C13.6667 12.1785 13.7821 11.5777 14.3065 11.0295C14.8462 10.4654 15.5071 10.2857 15.9583 10.2857V18.2857ZM21.6667 12.5C21.6667 11.1071 21.2096 9.61343 20.0872 8.44025C18.9496 7.25111 17.4345 6.71429 15.9583 6.71429V14.7143C15.5071 14.7143 14.8462 14.5346 14.3065 13.9705C13.7821 13.4223 13.6667 12.8215 13.6667 12.5H21.6667Z" fill="#A3FF71" mask="url(#path-1-inside-1_93_468)"/>
</g>
<defs>
<filter id="filter0_d_93_468" x="0" y="0" width="49" height="33" filterUnits="userSpaceOnUse" color-interpolation-filters="sRGB">
<feFlood flood-opacity="0" result="BackgroundImageFix"/>
<feColorMatrix in="SourceAlpha" type="matrix" values="0 0 0 0 0 0 0 0 0 0 0 0 0 0 0 0 0 0 127 0" result="hardAlpha"/>
<feOffset dy="4"/>
<feGaussianBlur stdDeviation="2"/>
<feComposite in2="hardAlpha" operator="out"/>
<feColorMatrix type="matrix" values="0 0 0 0 0 0 0 0 0 0 0 0 0 0 0 0 0 0 0.25 0"/>
<feBlend mode="normal" in2="BackgroundImageFix" result="effect1_dropShadow_93_468"/>
<feBlend mode="normal" in="SourceGraphic" in2="effect1_dropShadow_93_468" result="shape"/>
</filter>
</defs>
</svg>
