<svg width="15" height="17" viewBox="0 0 15 17" fill="none" xmlns="http://www.w3.org/2000/svg">
<path d="M0.847978 0.890625V1.20995C0.847978 4.69447 2.61156 7.69169 5.30074 8.80059V9.00887C2.61151 10.1178 0.847932 13.115 0.847932 16.5995V16.9189H14.1008V16.5995C14.1008 13.0945 12.3074 10.0964 9.59318 9.00565V8.8038C12.3072 7.71295 14.1008 4.71477 14.1008 1.20991V0.890625H0.847839H0.847978ZM1.72321 1.52924H13.2257C13.1112 4.82551 11.2502 7.52822 8.97649 8.32739L8.72955 8.41393V9.39658L8.97654 9.48305C11.2501 10.2822 13.111 12.9841 13.2257 16.2802H1.72321C1.83672 13.0026 3.67013 10.2964 5.92325 9.48093L6.16589 9.39336V8.41609L5.92325 8.32852C3.67022 7.51304 1.83667 4.80681 1.72321 1.52924ZM11.5979 4.47279C8.93545 5.42328 5.8426 5.4243 3.39139 4.61275C4.06867 6.35257 5.41647 7.5909 7.00221 7.79556C6.92822 7.8678 6.88814 7.95593 6.88805 8.04656C6.88805 8.2776 7.14169 8.46523 7.45422 8.46523C7.76674 8.46523 8.02038 8.2776 8.02038 8.04656C8.02038 7.95359 7.97847 7.86822 7.90918 7.79877C9.5465 7.5978 10.9359 6.29252 11.5979 4.47279ZM7.45422 8.97899C7.14169 8.97899 6.88805 9.16656 6.88805 9.39767C6.88805 9.62878 7.14169 9.81635 7.45422 9.81635C7.76674 9.81635 8.02038 9.62878 8.02038 9.39767C8.02038 9.16656 7.76674 8.97899 7.45422 8.97899ZM7.45422 10.3215C7.14169 10.3215 6.88805 10.5091 6.88805 10.7402C6.88805 10.9713 7.14169 11.1589 7.45422 11.1589C7.76674 11.1589 8.02038 10.9713 8.02038 10.7402C8.02038 10.5091 7.76674 10.3215 7.45422 10.3215ZM7.45422 11.6726C7.14169 11.6726 6.88805 11.8602 6.88805 12.0913C6.88805 12.3224 7.14169 12.51 7.45422 12.51C7.76674 12.51 8.02038 12.3224 8.02038 12.0913C8.02038 11.8602 7.76674 11.6726 7.45422 11.6726ZM7.45999 13.0365C6.38728 13.0461 5.32519 13.9173 3.95608 15.6223H11.0274C9.6167 13.8791 8.53271 13.027 7.45999 13.0365Z" fill="white"/>
</svg>
